<mxfile host="app.diagrams.net" modified="2021-11-15T08:34:01.905Z" agent="5.0 (Macintosh; Intel Mac OS X 10_15_7) AppleWebKit/605.1.15 (KHTML, like Gecko) Version/15.1 Safari/605.1.15" etag="bSBaEpgZvqo0s8JT1qCS" version="15.7.3" type="github">
  <diagram id="lhfPMkftHk_K57z3SqdS" name="Page-1">
    <mxGraphModel dx="920" dy="472" grid="1" gridSize="10" guides="1" tooltips="1" connect="1" arrows="1" fold="1" page="1" pageScale="1" pageWidth="827" pageHeight="1169" math="0" shadow="0">
      <root>
        <mxCell id="0" />
        <mxCell id="1" parent="0" />
        <mxCell id="X-AjO_8sJmS4SdYN_Y9C-27" value="3. Request Updated data" style="edgeStyle=orthogonalEdgeStyle;rounded=0;orthogonalLoop=1;jettySize=auto;html=1;exitX=1;exitY=0.75;exitDx=0;exitDy=0;entryX=1;entryY=0.5;entryDx=0;entryDy=0;entryPerimeter=0;" edge="1" parent="1" source="X-AjO_8sJmS4SdYN_Y9C-12" target="X-AjO_8sJmS4SdYN_Y9C-5">
          <mxGeometry x="0.4759" relative="1" as="geometry">
            <Array as="points">
              <mxPoint x="664" y="725" />
              <mxPoint x="664" y="470" />
            </Array>
            <mxPoint as="offset" />
          </mxGeometry>
        </mxCell>
        <mxCell id="X-AjO_8sJmS4SdYN_Y9C-12" value="" style="rounded=0;whiteSpace=wrap;html=1;" vertex="1" parent="1">
          <mxGeometry x="84" y="350" width="190" height="470" as="geometry" />
        </mxCell>
        <mxCell id="X-AjO_8sJmS4SdYN_Y9C-3" value="Add to Cart clicked" style="rhombus;whiteSpace=wrap;html=1;" vertex="1" parent="1">
          <mxGeometry x="310" y="425" width="90" height="90" as="geometry" />
        </mxCell>
        <mxCell id="X-AjO_8sJmS4SdYN_Y9C-9" style="edgeStyle=orthogonalEdgeStyle;rounded=0;orthogonalLoop=1;jettySize=auto;html=1;entryX=1;entryY=0.5;entryDx=0;entryDy=0;" edge="1" parent="1" source="X-AjO_8sJmS4SdYN_Y9C-5" target="X-AjO_8sJmS4SdYN_Y9C-8">
          <mxGeometry relative="1" as="geometry">
            <mxPoint x="744" y="430" as="targetPoint" />
            <Array as="points">
              <mxPoint x="554" y="560" />
            </Array>
          </mxGeometry>
        </mxCell>
        <mxCell id="X-AjO_8sJmS4SdYN_Y9C-10" value="2. Notify the change" style="edgeLabel;html=1;align=center;verticalAlign=middle;resizable=0;points=[];" vertex="1" connectable="0" parent="X-AjO_8sJmS4SdYN_Y9C-9">
          <mxGeometry x="0.0385" y="-1" relative="1" as="geometry">
            <mxPoint x="-40" y="-9" as="offset" />
          </mxGeometry>
        </mxCell>
        <mxCell id="X-AjO_8sJmS4SdYN_Y9C-31" style="edgeStyle=orthogonalEdgeStyle;rounded=0;orthogonalLoop=1;jettySize=auto;html=1;exitX=1;exitY=0;exitDx=0;exitDy=27.5;exitPerimeter=0;entryX=1;entryY=0.5;entryDx=0;entryDy=0;" edge="1" parent="1" source="X-AjO_8sJmS4SdYN_Y9C-5" target="X-AjO_8sJmS4SdYN_Y9C-23">
          <mxGeometry relative="1" as="geometry">
            <Array as="points">
              <mxPoint x="744" y="458" />
              <mxPoint x="744" y="755" />
            </Array>
          </mxGeometry>
        </mxCell>
        <mxCell id="X-AjO_8sJmS4SdYN_Y9C-32" value="4. Updated data" style="edgeLabel;html=1;align=center;verticalAlign=middle;resizable=0;points=[];" vertex="1" connectable="0" parent="X-AjO_8sJmS4SdYN_Y9C-31">
          <mxGeometry x="-0.5787" y="-4" relative="1" as="geometry">
            <mxPoint y="1" as="offset" />
          </mxGeometry>
        </mxCell>
        <mxCell id="X-AjO_8sJmS4SdYN_Y9C-5" value="DB" style="shape=cylinder3;whiteSpace=wrap;html=1;boundedLbl=1;backgroundOutline=1;size=15;" vertex="1" parent="1">
          <mxGeometry x="524" y="430" width="60" height="80" as="geometry" />
        </mxCell>
        <mxCell id="X-AjO_8sJmS4SdYN_Y9C-6" value="" style="endArrow=classic;html=1;rounded=0;exitX=1;exitY=0.5;exitDx=0;exitDy=0;entryX=0;entryY=0.5;entryDx=0;entryDy=0;entryPerimeter=0;" edge="1" parent="1" source="X-AjO_8sJmS4SdYN_Y9C-3" target="X-AjO_8sJmS4SdYN_Y9C-5">
          <mxGeometry width="50" height="50" relative="1" as="geometry">
            <mxPoint x="454" y="390" as="sourcePoint" />
            <mxPoint x="504" y="340" as="targetPoint" />
          </mxGeometry>
        </mxCell>
        <mxCell id="X-AjO_8sJmS4SdYN_Y9C-7" value="1. Insert" style="edgeLabel;html=1;align=center;verticalAlign=middle;resizable=0;points=[];" vertex="1" connectable="0" parent="X-AjO_8sJmS4SdYN_Y9C-6">
          <mxGeometry x="-0.1517" y="2" relative="1" as="geometry">
            <mxPoint y="-10" as="offset" />
          </mxGeometry>
        </mxCell>
        <mxCell id="X-AjO_8sJmS4SdYN_Y9C-15" style="edgeStyle=orthogonalEdgeStyle;rounded=0;orthogonalLoop=1;jettySize=auto;html=1;entryX=0.5;entryY=0;entryDx=0;entryDy=0;" edge="1" parent="1" source="X-AjO_8sJmS4SdYN_Y9C-8" target="X-AjO_8sJmS4SdYN_Y9C-14">
          <mxGeometry relative="1" as="geometry">
            <Array as="points">
              <mxPoint x="179" y="610" />
              <mxPoint x="554" y="610" />
            </Array>
          </mxGeometry>
        </mxCell>
        <mxCell id="X-AjO_8sJmS4SdYN_Y9C-16" value="Notify" style="edgeLabel;html=1;align=center;verticalAlign=middle;resizable=0;points=[];" vertex="1" connectable="0" parent="X-AjO_8sJmS4SdYN_Y9C-15">
          <mxGeometry x="-0.2" y="-2" relative="1" as="geometry">
            <mxPoint x="51" y="-12" as="offset" />
          </mxGeometry>
        </mxCell>
        <mxCell id="X-AjO_8sJmS4SdYN_Y9C-8" value="Manual Callback" style="ellipse;whiteSpace=wrap;html=1;" vertex="1" parent="1">
          <mxGeometry x="119" y="520" width="120" height="80" as="geometry" />
        </mxCell>
        <mxCell id="X-AjO_8sJmS4SdYN_Y9C-13" value="PDP Activity" style="text;html=1;strokeColor=none;fillColor=none;align=center;verticalAlign=middle;whiteSpace=wrap;rounded=0;" vertex="1" parent="1">
          <mxGeometry x="136.5" y="370" width="85" height="30" as="geometry" />
        </mxCell>
        <mxCell id="X-AjO_8sJmS4SdYN_Y9C-18" style="edgeStyle=orthogonalEdgeStyle;rounded=0;orthogonalLoop=1;jettySize=auto;html=1;" edge="1" parent="1" source="X-AjO_8sJmS4SdYN_Y9C-14" target="X-AjO_8sJmS4SdYN_Y9C-17">
          <mxGeometry relative="1" as="geometry" />
        </mxCell>
        <mxCell id="X-AjO_8sJmS4SdYN_Y9C-19" value="Notify" style="edgeLabel;html=1;align=center;verticalAlign=middle;resizable=0;points=[];" vertex="1" connectable="0" parent="X-AjO_8sJmS4SdYN_Y9C-18">
          <mxGeometry x="-0.4361" relative="1" as="geometry">
            <mxPoint x="79" y="-10" as="offset" />
          </mxGeometry>
        </mxCell>
        <mxCell id="X-AjO_8sJmS4SdYN_Y9C-14" value="Content Resolver" style="ellipse;whiteSpace=wrap;html=1;" vertex="1" parent="1">
          <mxGeometry x="494" y="620" width="120" height="80" as="geometry" />
        </mxCell>
        <mxCell id="X-AjO_8sJmS4SdYN_Y9C-17" value="Registered Content Resolver Listeners" style="shape=process;whiteSpace=wrap;html=1;backgroundOutline=1;" vertex="1" parent="1">
          <mxGeometry x="99" y="625" width="160" height="70" as="geometry" />
        </mxCell>
        <mxCell id="X-AjO_8sJmS4SdYN_Y9C-22" style="edgeStyle=orthogonalEdgeStyle;rounded=0;orthogonalLoop=1;jettySize=auto;html=1;entryX=0;entryY=0.5;entryDx=0;entryDy=0;" edge="1" parent="1" source="X-AjO_8sJmS4SdYN_Y9C-21" target="X-AjO_8sJmS4SdYN_Y9C-3">
          <mxGeometry relative="1" as="geometry" />
        </mxCell>
        <mxCell id="X-AjO_8sJmS4SdYN_Y9C-21" value="Add to Cart Button" style="rounded=1;whiteSpace=wrap;html=1;" vertex="1" parent="1">
          <mxGeometry x="119" y="440" width="120" height="60" as="geometry" />
        </mxCell>
        <mxCell id="X-AjO_8sJmS4SdYN_Y9C-23" value="UI Update" style="rhombus;whiteSpace=wrap;html=1;" vertex="1" parent="1">
          <mxGeometry x="136.5" y="715" width="80" height="80" as="geometry" />
        </mxCell>
      </root>
    </mxGraphModel>
  </diagram>
</mxfile>
